<mxfile host="app.diagrams.net" modified="2024-04-04T05:32:04.496Z" agent="Mozilla/5.0 (X11; Ubuntu; Linux x86_64; rv:124.0) Gecko/20100101 Firefox/124.0" version="24.2.2" etag="EB7x9IaA0ObiBg8ZCFmz" type="github">
  <diagram name="Страница — 1" id="7yQCbDLcMPgdKQsr30gx">
    <mxGraphModel>
      <root>
        <mxCell id="0" />
        <mxCell id="1" parent="0" />
      </root>
    </mxGraphModel>
  </diagram>
</mxfile>
